<svg version="1.2" xmlns="http://www.w3.org/2000/svg" viewBox="0 0 797 789" width="797" height="789">
	<title>wf-icon-svg</title>
	<style>
		.s0 { fill: #233565 } 
	</style>
	<g>
		<path fill-rule="evenodd" class="s0" d="m778.4 393.9c0 212.2-171.9 385-384.4 385-212.5 0-384.4-172.8-384.4-385 0-212.1 171.9-383.8 384.4-383.8 212.5 0 384.4 171.9 384.4 383.8zm-264.6 180.1h-237.2v28.3h237.2zm23.9-151.3c0 0-90.1-54.3-111.9-158.9 11.9-3.6 22.2-11.4 28.8-22 6.6-10.6 9.2-23.3 7.2-35.6-2-12.4-8.4-23.6-18.1-31.5-9.6-8-21.8-12.2-34.3-11.8v236.7c6.6 3.2 12 8.5 15.2 15.1 3.3 6.7 4.2 14.2 2.6 21.4-1.6 7.2-5.5 13.7-11.2 18.4-5.7 4.6-12.8 7.3-20.2 7.4-7.4 0.2-14.6-2.2-20.4-6.7-5.9-4.5-10-10.9-11.7-18.1-1.8-7.2-1-14.7 2.2-21.4 3.2-6.7 8.5-12.1 15.2-15.3v-237.3c-12.3 0-24.1 4.4-33.4 12.4-9.3 7.9-15.5 18.9-17.5 30.9-1.9 12.1 0.4 24.5 6.7 35 6.2 10.5 16 18.4 27.6 22.4-21.9 104.6-111.7 158.9-111.7 158.9 0 74 38.2 107.6 72.6 123h139.4c34.8-15.4 72.9-49 72.9-123z"/>
	</g>
</svg>