<svg version="1.2" xmlns="http://www.w3.org/2000/svg" viewBox="0 0 567 87" width="567" height="87">
	<title>logo-no-background-svg</title>
	<style>
		.s0 { fill: none } 
		.s1 { fill: #233565 } 
		.s2 { fill: #8bd8bc;stroke: #233565;stroke-width: 4.8 } 
	</style>
	<g>
		<g>
			<path class="s0" d="m136.6-9.3h427.7v104.5h-427.7z"/>
			<path fill-rule="evenodd" class="s1" d="m165.5 72h-6.8l-19.8-61.6h7l16.6 52.6 15.9-52.6h6.6l16.1 52.5 16.4-52.5h7l-19.9 61.6h-6.7l-16.2-51.1zm-3-9l-1 3.3h2.1zm38.6-0.1l-1.3 4.2h2.5zm-19.4-42.1l1.1-3.5h-2.2zm59.2 51.2h-6.7v-42.5q1.1-0.4 4.3-1.5 3.2-1.1 7.7-2.1 4.5-0.9 9.3-0.9 0.7 0 1.5 0.2 0.7 0.2 1.5 0.4v5.9q-2.5-0.3-4.7-0.3-2.3 0-4.4 0.2-2.1 0.3-4.3 0.6-2.1 0.4-4.2 0.8zm35.2 0h-6.6v-46.2h6.6zm0.4-54.4h-7.4v-7.3h7.4zm29.3 55.2q-4.9 0-8.2-3.1-3.3-3-3.3-8.9v-28.8h-8.1v-6.1h8.1v-13.1h6.6v13.1h11.9v6.1h-11.9v26.7q0 3.9 1.2 5.8 1.2 2 4.9 2 1.7 0 3.2-0.4 1.6-0.3 2.6-0.8v6.3q-1.3 0.5-3.3 0.8-1.9 0.4-3.7 0.4zm38.1 0.6q-6.6 0-11.4-2.7-4.8-2.7-7.4-8.2-2.6-5.5-2.6-13.6 0-11.9 5.5-17.9 5.4-6 14.8-6 7.4 0 11.9 3.4 4.5 3.3 6.4 8.9 1.9 5.7 1.9 12.8h-33.7q0 8.4 3.9 12.8 4 4.4 11.1 4.4 3.4 0 6.3-0.5 2.8-0.5 5.2-1.4 2.4-1 4.3-2.1v6.9q-3.3 1.5-7.4 2.4-4 0.8-8.8 0.8zm-14.6-23.3q0-3.4 0.3-6.1h-3.3l-0.4 6.1zm26.7-6.1q0 0.5 0 0.9l2.6-0.9zm-3.4-9.4q-3.2-3.5-9.8-3.5-4.5 0-7.5 1.7-3 1.7-4.5 5.8-0.8 2.2-1.2 5.4h26.4q-0.4-6.2-3.4-9.4zm30 37.4h-6.7v-61.7h37.8v6.3h-31.1v21.3h27.4v6.5h-27.4zm49.4-63.8v63.8h-6.7v-63.8zm33.8 65.2q-10.9 0-16.1-6.5-5.2-6.4-5.2-17.9 0-12 5.5-18 5.5-6 15.6-6 7.5 0 12.2 3 4.7 3 6.9 8.4 2.2 5.4 2.2 12.6 0 11.4-5.5 17.9-5.5 6.5-15.6 6.5zm-0.1-6.1q5.6 0 8.8-2.5 3.1-2.4 4.4-6.6 1.4-4.1 1.4-9.2 0-5.4-1.4-9.4-1.4-4.1-4.6-6.3-3.2-2.2-8.6-2.2-5.6 0-8.7 2.4-3.2 2.4-4.5 6.4-1.4 4.1-1.4 9.1 0 8.2 3.3 13.2 3.2 5.1 11.3 5.1zm49.3 4.7h-6.7l-15.3-46.2h7l12 38.6 11.3-38.6h6.4l11.6 38.7 12.2-38.7h6.6l-15.4 46.2h-6.7l-11.5-38.4zm-3.1-7.5l-0.9 3.3 1.7-0.8zm29.3 0.1l-0.6 2.1h1.3zm-14.9-30.8l0.4-1.5-1.2-1.1zm-437.3 9.6c0 24.1-19.6 43.7-43.7 43.7-24.2 0-43.7-19.6-43.7-43.7 0-24.1 19.5-43.6 43.7-43.6 24.1 0 43.7 19.5 43.7 43.6zm-30.1 20.4h-26.9v3.2h26.9zm2.7-17.2c0 0-10.2-6.1-12.7-18 1.4-0.4 2.5-1.3 3.3-2.5 0.7-1.2 1-2.6 0.8-4-0.2-1.5-1-2.7-2.1-3.6-1.1-0.9-2.5-1.4-3.9-1.4v26.9c0.8 0.4 1.4 1 1.8 1.7 0.3 0.8 0.4 1.7 0.3 2.5-0.2 0.8-0.7 1.5-1.3 2.1-0.7 0.5-1.5 0.8-2.3 0.8-0.9 0-1.7-0.3-2.3-0.8-0.7-0.5-1.2-1.2-1.4-2-0.2-0.8-0.1-1.7 0.3-2.4 0.3-0.8 1-1.4 1.7-1.8v-26.9c-1.4 0-2.7 0.5-3.8 1.4-1 0.9-1.7 2.1-2 3.5-0.2 1.4 0.1 2.8 0.8 4 0.7 1.1 1.8 2 3.1 2.5-2.5 11.9-12.7 18-12.7 18 0 8.5 4.4 12.3 8.3 14h15.8c4-1.7 8.3-5.5 8.3-14z"/>
			<g>
				<path class="s2" d="m111.7 0.1v82.9"/>
			</g>
		</g>
	</g>
</svg>